<mxfile host="app.diagrams.net" agent="Mozilla/5.0 (Windows NT 10.0; Win64; x64) AppleWebKit/537.36 (KHTML, like Gecko) Chrome/134.0.0.0 Safari/537.36 Edg/134.0.0.0" version="26.1.1">
  <diagram id="C5RBs43oDa-KdzZeNtuy" name="Page-1">
    <mxGraphModel dx="1425" dy="763" grid="1" gridSize="10" guides="1" tooltips="1" connect="1" arrows="1" fold="1" page="1" pageScale="1" pageWidth="827" pageHeight="1169" math="0" shadow="0">
      <root>
        <mxCell id="WIyWlLk6GJQsqaUBKTNV-0" />
        <mxCell id="WIyWlLk6GJQsqaUBKTNV-1" parent="WIyWlLk6GJQsqaUBKTNV-0" />
        <mxCell id="PrvfjyKSoJNpgGcF1xQb-0" value="BlasterCharacter" style="swimlane;fontStyle=1;align=center;verticalAlign=top;childLayout=stackLayout;horizontal=1;startSize=26;horizontalStack=0;resizeParent=1;resizeParentMax=0;resizeLast=0;collapsible=1;marginBottom=0;whiteSpace=wrap;html=1;" vertex="1" parent="WIyWlLk6GJQsqaUBKTNV-1">
          <mxGeometry x="270" y="20" width="270" height="220" as="geometry" />
        </mxCell>
        <mxCell id="PrvfjyKSoJNpgGcF1xQb-1" value="- MoveAction: UInputAction*&lt;div&gt;- LookAction: UInputAction*&lt;/div&gt;&lt;div&gt;- CameraBoom : USpringArmComponent*&lt;/div&gt;&lt;div&gt;- FollowCamera : UCameraComponent*&lt;/div&gt;&lt;div&gt;- OverlappedWeapon : AWeapon*&lt;/div&gt;&lt;div&gt;- Combat : UCombatComponet*&lt;/div&gt;&lt;div&gt;&lt;br&gt;&lt;/div&gt;&lt;div&gt;&lt;br&gt;&lt;/div&gt;" style="text;strokeColor=none;fillColor=none;align=left;verticalAlign=top;spacingLeft=4;spacingRight=4;overflow=hidden;rotatable=0;points=[[0,0.5],[1,0.5]];portConstraint=eastwest;whiteSpace=wrap;html=1;" vertex="1" parent="PrvfjyKSoJNpgGcF1xQb-0">
          <mxGeometry y="26" width="270" height="94" as="geometry" />
        </mxCell>
        <mxCell id="PrvfjyKSoJNpgGcF1xQb-2" value="" style="line;strokeWidth=1;fillColor=none;align=left;verticalAlign=middle;spacingTop=-1;spacingLeft=3;spacingRight=3;rotatable=0;labelPosition=right;points=[];portConstraint=eastwest;strokeColor=inherit;" vertex="1" parent="PrvfjyKSoJNpgGcF1xQb-0">
          <mxGeometry y="120" width="270" height="8" as="geometry" />
        </mxCell>
        <mxCell id="PrvfjyKSoJNpgGcF1xQb-3" value="+ method(type): type" style="text;strokeColor=none;fillColor=none;align=left;verticalAlign=top;spacingLeft=4;spacingRight=4;overflow=hidden;rotatable=0;points=[[0,0.5],[1,0.5]];portConstraint=eastwest;whiteSpace=wrap;html=1;" vertex="1" parent="PrvfjyKSoJNpgGcF1xQb-0">
          <mxGeometry y="128" width="270" height="92" as="geometry" />
        </mxCell>
        <mxCell id="PrvfjyKSoJNpgGcF1xQb-4" value="CombatComponent" style="swimlane;fontStyle=1;align=center;verticalAlign=top;childLayout=stackLayout;horizontal=1;startSize=26;horizontalStack=0;resizeParent=1;resizeParentMax=0;resizeLast=0;collapsible=1;marginBottom=0;whiteSpace=wrap;html=1;" vertex="1" parent="WIyWlLk6GJQsqaUBKTNV-1">
          <mxGeometry x="660" y="58" width="160" height="86" as="geometry" />
        </mxCell>
        <mxCell id="PrvfjyKSoJNpgGcF1xQb-5" value="+ field: type" style="text;strokeColor=none;fillColor=none;align=left;verticalAlign=top;spacingLeft=4;spacingRight=4;overflow=hidden;rotatable=0;points=[[0,0.5],[1,0.5]];portConstraint=eastwest;whiteSpace=wrap;html=1;" vertex="1" parent="PrvfjyKSoJNpgGcF1xQb-4">
          <mxGeometry y="26" width="160" height="26" as="geometry" />
        </mxCell>
        <mxCell id="PrvfjyKSoJNpgGcF1xQb-6" value="" style="line;strokeWidth=1;fillColor=none;align=left;verticalAlign=middle;spacingTop=-1;spacingLeft=3;spacingRight=3;rotatable=0;labelPosition=right;points=[];portConstraint=eastwest;strokeColor=inherit;" vertex="1" parent="PrvfjyKSoJNpgGcF1xQb-4">
          <mxGeometry y="52" width="160" height="8" as="geometry" />
        </mxCell>
        <mxCell id="PrvfjyKSoJNpgGcF1xQb-7" value="+ method(type): type" style="text;strokeColor=none;fillColor=none;align=left;verticalAlign=top;spacingLeft=4;spacingRight=4;overflow=hidden;rotatable=0;points=[[0,0.5],[1,0.5]];portConstraint=eastwest;whiteSpace=wrap;html=1;" vertex="1" parent="PrvfjyKSoJNpgGcF1xQb-4">
          <mxGeometry y="60" width="160" height="26" as="geometry" />
        </mxCell>
        <mxCell id="PrvfjyKSoJNpgGcF1xQb-10" value="1" style="endArrow=open;html=1;endSize=12;startArrow=diamondThin;startSize=14;startFill=1;edgeStyle=orthogonalEdgeStyle;align=left;verticalAlign=bottom;rounded=0;" edge="1" parent="WIyWlLk6GJQsqaUBKTNV-1">
          <mxGeometry x="-1" y="3" relative="1" as="geometry">
            <mxPoint x="540" y="110" as="sourcePoint" />
            <mxPoint x="660" y="110" as="targetPoint" />
          </mxGeometry>
        </mxCell>
        <mxCell id="PrvfjyKSoJNpgGcF1xQb-11" value="AWeapon" style="swimlane;fontStyle=1;align=center;verticalAlign=top;childLayout=stackLayout;horizontal=1;startSize=26;horizontalStack=0;resizeParent=1;resizeParentMax=0;resizeLast=0;collapsible=1;marginBottom=0;whiteSpace=wrap;html=1;" vertex="1" parent="WIyWlLk6GJQsqaUBKTNV-1">
          <mxGeometry x="380" y="310" width="270" height="198" as="geometry" />
        </mxCell>
        <mxCell id="PrvfjyKSoJNpgGcF1xQb-12" value="- WeaponMesh : USkeletalMeshComponent*&lt;div&gt;- AreaSphere : USphereComponent*&lt;/div&gt;&lt;div&gt;- PickupWidget : UWidgetComponent*&lt;/div&gt;&lt;div&gt;- WeaponState : EWeaponState&lt;/div&gt;&lt;div&gt;&lt;br&gt;&lt;/div&gt;" style="text;strokeColor=none;fillColor=none;align=left;verticalAlign=top;spacingLeft=4;spacingRight=4;overflow=hidden;rotatable=0;points=[[0,0.5],[1,0.5]];portConstraint=eastwest;whiteSpace=wrap;html=1;" vertex="1" parent="PrvfjyKSoJNpgGcF1xQb-11">
          <mxGeometry y="26" width="270" height="64" as="geometry" />
        </mxCell>
        <mxCell id="PrvfjyKSoJNpgGcF1xQb-13" value="" style="line;strokeWidth=1;fillColor=none;align=left;verticalAlign=middle;spacingTop=-1;spacingLeft=3;spacingRight=3;rotatable=0;labelPosition=right;points=[];portConstraint=eastwest;strokeColor=inherit;" vertex="1" parent="PrvfjyKSoJNpgGcF1xQb-11">
          <mxGeometry y="90" width="270" height="8" as="geometry" />
        </mxCell>
        <mxCell id="PrvfjyKSoJNpgGcF1xQb-14" value="+ method(type): type&lt;div&gt;#&amp;nbsp;OnSphereBeginOverlap() : void (delegate)&lt;/div&gt;&lt;div&gt;# OnSphereEndOverlap() : void&lt;/div&gt;&lt;div&gt;&lt;br&gt;&lt;/div&gt;" style="text;strokeColor=none;fillColor=none;align=left;verticalAlign=top;spacingLeft=4;spacingRight=4;overflow=hidden;rotatable=0;points=[[0,0.5],[1,0.5]];portConstraint=eastwest;whiteSpace=wrap;html=1;" vertex="1" parent="PrvfjyKSoJNpgGcF1xQb-11">
          <mxGeometry y="98" width="270" height="100" as="geometry" />
        </mxCell>
        <mxCell id="PrvfjyKSoJNpgGcF1xQb-15" value="EWeaponState" style="swimlane;fontStyle=1;align=center;verticalAlign=top;childLayout=stackLayout;horizontal=1;startSize=26;horizontalStack=0;resizeParent=1;resizeParentMax=0;resizeLast=0;collapsible=1;marginBottom=0;whiteSpace=wrap;html=1;" vertex="1" parent="WIyWlLk6GJQsqaUBKTNV-1">
          <mxGeometry x="100" y="360" width="190" height="98" as="geometry" />
        </mxCell>
        <mxCell id="PrvfjyKSoJNpgGcF1xQb-16" value="EWS_Initial&lt;div&gt;EWS_Equipped&lt;br&gt;EWS_Dropped&lt;br&gt;EWS_Max&lt;/div&gt;" style="text;strokeColor=none;fillColor=none;align=left;verticalAlign=top;spacingLeft=4;spacingRight=4;overflow=hidden;rotatable=0;points=[[0,0.5],[1,0.5]];portConstraint=eastwest;whiteSpace=wrap;html=1;" vertex="1" parent="PrvfjyKSoJNpgGcF1xQb-15">
          <mxGeometry y="26" width="190" height="64" as="geometry" />
        </mxCell>
        <mxCell id="PrvfjyKSoJNpgGcF1xQb-17" value="" style="line;strokeWidth=1;fillColor=none;align=left;verticalAlign=middle;spacingTop=-1;spacingLeft=3;spacingRight=3;rotatable=0;labelPosition=right;points=[];portConstraint=eastwest;strokeColor=inherit;" vertex="1" parent="PrvfjyKSoJNpgGcF1xQb-15">
          <mxGeometry y="90" width="190" height="8" as="geometry" />
        </mxCell>
        <mxCell id="PrvfjyKSoJNpgGcF1xQb-22" value="1" style="endArrow=open;html=1;endSize=12;startArrow=diamondThin;startSize=14;startFill=0;edgeStyle=orthogonalEdgeStyle;align=left;verticalAlign=bottom;rounded=0;exitX=0.005;exitY=0.768;exitDx=0;exitDy=0;exitPerimeter=0;entryX=0.996;entryY=0.3;entryDx=0;entryDy=0;entryPerimeter=0;" edge="1" parent="WIyWlLk6GJQsqaUBKTNV-1" source="PrvfjyKSoJNpgGcF1xQb-13" target="PrvfjyKSoJNpgGcF1xQb-16">
          <mxGeometry x="-1" y="3" relative="1" as="geometry">
            <mxPoint x="90" y="500" as="sourcePoint" />
            <mxPoint x="252" y="406" as="targetPoint" />
          </mxGeometry>
        </mxCell>
      </root>
    </mxGraphModel>
  </diagram>
</mxfile>
